<svg width="201" height="201" viewBox="0 0 201 201" fill="none" xmlns="http://www.w3.org/2000/svg">
<rect x="0.192871" y="0.927002" width="200" height="200" rx="40" fill="black"/>
<path d="M97.526 31.1647C98.643 28.9966 101.743 28.9966 102.86 31.1647L116.237 57.1293C116.908 58.4321 118.422 59.0592 119.818 58.6127L147.637 49.7118C149.959 48.9686 152.151 51.1605 151.408 53.4833L142.507 81.3021C142.061 82.6978 142.688 84.212 143.991 84.8832L169.955 98.2601C172.123 99.3771 172.123 102.477 169.955 103.594L143.991 116.971C142.688 117.642 142.061 119.156 142.507 120.552L151.408 148.371C152.151 150.694 149.959 152.885 147.637 152.142L119.818 143.241C118.422 142.795 116.908 143.422 116.237 144.725L102.86 170.689C101.743 172.857 98.643 172.857 97.526 170.689L84.149 144.725C83.4779 143.422 81.9637 142.795 80.5679 143.241L52.7492 152.142C50.4264 152.885 48.2345 150.694 48.9777 148.371L57.8785 120.552C58.3251 119.156 57.6979 117.642 56.3952 116.971L30.4305 103.594C28.2625 102.477 28.2625 99.3771 30.4305 98.2601L56.3952 84.8832C57.6979 84.212 58.3251 82.6978 57.8785 81.3021L48.9777 53.4834C48.2345 51.1605 50.4264 48.9686 52.7492 49.7118L80.5679 58.6127C81.9637 59.0592 83.4779 58.4321 84.149 57.1293L97.526 31.1647Z" fill="white"/>
<circle cx="100.193" cy="100.927" r="25.2785" transform="rotate(45 100.193 100.927)" stroke="black" stroke-width="10"/>
</svg>
